<?xml version="1.0" encoding="UTF-8"?>
<!DOCTYPE svg PUBLIC "-//W3C//DTD SVG 1.1//EN" "http://www.w3.org/Graphics/SVG/1.1/DTD/svg11.dtd">
<svg xmlns="http://www.w3.org/2000/svg" version="1.1" width="512px" height="512px" style="shape-rendering:geometricPrecision; text-rendering:geometricPrecision; image-rendering:optimizeQuality; fill-rule:evenodd; clip-rule:evenodd" xmlns:xlink="http://www.w3.org/1999/xlink">
<g><path style="opacity:0.987" fill="#374248" d="M 488.5,20.5 C 493.844,20.334 499.177,20.5006 504.5,21C 507.621,21.9668 509.954,23.8001 511.5,26.5C 511.5,33.8333 511.5,41.1667 511.5,48.5C 507.411,81.8307 497.578,113.497 482,143.5C 470.682,165.655 453.515,181.322 430.5,190.5C 442.824,220.619 449.324,251.953 450,284.5C 451.965,290.428 454.465,296.094 457.5,301.5C 449.98,316.715 442.647,332.048 435.5,347.5C 418.012,336.349 402.512,338.683 389,354.5C 380.704,369.636 382.204,383.636 393.5,396.5C 397.764,400.467 402.764,403.133 408.5,404.5C 405.833,410.833 403.167,417.167 400.5,423.5C 385.574,419.235 374.574,410.235 367.5,396.5C 363.445,387.271 361.778,377.604 362.5,367.5C 365.687,345.468 377.687,330.301 398.5,322C 414.285,317.351 429.285,319.184 443.5,327.5C 443.833,326.833 444.167,326.167 444.5,325.5C 439.412,314.988 434.579,304.321 430,293.5C 429,289.167 428,284.833 427,280.5C 427.518,259.645 424.518,239.311 418,219.5C 410.974,199.126 403.141,179.126 394.5,159.5C 395.675,150.513 400.675,147.346 409.5,150C 410.931,150.465 412.097,151.299 413,152.5C 415.667,157.833 418.333,163.167 421,168.5C 431.824,167.245 440.824,162.245 448,153.5C 448.167,152.5 448.333,151.5 448.5,150.5C 446.957,140.786 445.29,131.119 443.5,121.5C 457.435,89.6271 471.935,57.9604 487,26.5C 487.813,24.5643 488.313,22.5643 488.5,20.5 Z"/></g>
<g><path style="opacity:0.994" fill="#3b464c" d="M 488.5,20.5 C 488.313,22.5643 487.813,24.5643 487,26.5C 471.935,57.9604 457.435,89.6271 443.5,121.5C 440.342,110.521 436.842,99.5212 433,88.5C 429.762,79.5235 425.595,71.0235 420.5,63C 417.725,63.3737 415.058,64.3737 412.5,66C 404.334,70.6888 396.334,75.5221 388.5,80.5C 392.701,70.4109 397.201,60.4109 402,50.5C 402.74,49.2506 402.573,48.2506 401.5,47.5C 428.626,32.7962 457.626,23.7962 488.5,20.5 Z"/></g>
<g><path style="opacity:0.999" fill="#545e63" d="M 107.5,46.5 C 104.84,53.156 102.173,59.8227 99.5,66.5C 96.6374,64.7259 93.6374,63.5592 90.5,63C 82.3973,76.6307 76.2307,91.1307 72,106.5C 68.3146,119.437 65.4813,132.437 63.5,145.5C 63.631,144.761 63.4643,144.094 63,143.5C 58.9813,152.871 54.4813,161.871 49.5,170.5C 43.1093,164.605 37.6093,157.939 33,150.5C 15.095,118.62 3.92834,84.6196 -0.5,48.5C -0.5,41.1667 -0.5,33.8333 -0.5,26.5C 1.04602,23.8001 3.37935,21.9668 6.5,21C 42.4172,20.8958 76.0838,29.3958 107.5,46.5 Z"/></g>
<g><path style="opacity:0.991" fill="#414c50" d="M 401.5,47.5 C 402.573,48.2506 402.74,49.2506 402,50.5C 397.201,60.4109 392.701,70.4109 388.5,80.5C 382.229,86.2698 376.062,92.2698 370,98.5C 367.193,101.944 365.027,105.777 363.5,110C 369.521,113.098 375.354,116.598 381,120.5C 385.621,128.362 383.788,134.195 375.5,138C 373.833,138.667 372.167,138.667 370.5,138C 368.593,136.878 366.593,136.045 364.5,135.5C 337.26,120.976 308.26,111.643 277.5,107.5C 280.444,100.61 283.111,93.6104 285.5,86.5C 305.089,89.2518 324.089,94.2518 342.5,101.5C 356.425,77.2422 376.092,59.2422 401.5,47.5 Z"/></g>
<g><path style="opacity:1" fill="#fdf072" d="M 99.5,66.5 C 112.931,73.5534 124.931,82.5534 135.5,93.5C 126.833,112.167 118.167,130.833 109.5,149.5C 105.964,148.104 102.63,148.604 99.5,151C 95.9521,156.594 92.7854,162.427 90,168.5C 79.7239,167.355 71.0573,162.688 64,154.5C 63.502,151.518 63.3354,148.518 63.5,145.5C 65.4813,132.437 68.3146,119.437 72,106.5C 76.2307,91.1307 82.3973,76.6307 90.5,63C 93.6374,63.5592 96.6374,64.7259 99.5,66.5 Z"/></g>
<g><path style="opacity:1" fill="#fded60" d="M 443.5,121.5 C 445.29,131.119 446.957,140.786 448.5,150.5C 448.333,151.5 448.167,152.5 448,153.5C 440.824,162.245 431.824,167.245 421,168.5C 418.333,163.167 415.667,157.833 413,152.5C 412.097,151.299 410.931,150.465 409.5,150C 400.675,147.346 395.675,150.513 394.5,159.5C 403.141,179.126 410.974,199.126 418,219.5C 424.518,239.311 427.518,259.645 427,280.5C 428,284.833 429,289.167 430,293.5C 434.579,304.321 439.412,314.988 444.5,325.5C 444.167,326.167 443.833,326.833 443.5,327.5C 429.285,319.184 414.285,317.351 398.5,322C 377.687,330.301 365.687,345.468 362.5,367.5C 361.391,367.443 360.391,367.11 359.5,366.5C 350.114,356.112 340.114,346.446 329.5,337.5C 325.953,330.817 320.619,328.983 313.5,332C 309.454,336.357 304.454,339.023 298.5,340C 288.271,341.205 278.271,340.372 268.5,337.5C 268.5,337.167 268.5,336.833 268.5,336.5C 299.319,270.193 330.153,203.86 361,137.5C 361.71,136.027 362.876,135.36 364.5,135.5C 366.593,136.045 368.593,136.878 370.5,138C 372.167,138.667 373.833,138.667 375.5,138C 383.788,134.195 385.621,128.362 381,120.5C 375.354,116.598 369.521,113.098 363.5,110C 365.027,105.777 367.193,101.944 370,98.5C 376.062,92.2698 382.229,86.2698 388.5,80.5C 396.334,75.5221 404.334,70.6888 412.5,66C 415.058,64.3737 417.725,63.3737 420.5,63C 425.595,71.0235 429.762,79.5235 433,88.5C 436.842,99.5212 440.342,110.521 443.5,121.5 Z"/></g>
<g><path style="opacity:1" fill="#4e585d" d="M 107.5,46.5 C 126.364,55.512 142.864,67.8453 157,83.5C 161.142,88.9515 164.642,94.7848 167.5,101C 176.271,98.0257 185.271,95.5257 194.5,93.5C 195.376,93.3691 196.043,93.7025 196.5,94.5C 192.879,102.071 189.546,109.738 186.5,117.5C 170.903,123.46 155.569,130.293 140.5,138C 130.643,138.134 126.476,133.301 128,123.5C 129.046,121.91 130.213,120.41 131.5,119C 136.894,115.973 142.227,112.973 147.5,110C 144.811,103.488 140.811,97.9881 135.5,93.5C 124.931,82.5534 112.931,73.5534 99.5,66.5C 102.173,59.8227 104.84,53.156 107.5,46.5 Z"/></g>
<g><path style="opacity:0.988" fill="#485358" d="M 285.5,86.5 C 283.111,93.6104 280.444,100.61 277.5,107.5C 265.864,106.587 254.197,106.254 242.5,106.5C 223.425,108.115 204.758,111.782 186.5,117.5C 189.546,109.738 192.879,102.071 196.5,94.5C 196.043,93.7025 195.376,93.3691 194.5,93.5C 224.194,84.5001 254.527,82.1667 285.5,86.5 Z"/></g>
<g><path style="opacity:1" fill="#feef6d" d="M 135.5,93.5 C 140.811,97.9881 144.811,103.488 147.5,110C 142.227,112.973 136.894,115.973 131.5,119C 130.213,120.41 129.046,121.91 128,123.5C 126.476,133.301 130.643,138.134 140.5,138C 155.569,130.293 170.903,123.46 186.5,117.5C 204.758,111.782 223.425,108.115 242.5,106.5C 239.064,109.321 236.564,112.987 235,117.5C 215.868,158.41 197.035,199.41 178.5,240.5C 158.071,229.033 141.904,233.366 130,253.5C 124.171,274.172 131.005,288.838 150.5,297.5C 145.386,310.397 139.719,323.063 133.5,335.5C 112.854,317.145 90.5211,314.812 66.5,328.5C 66.1667,328.167 65.8333,327.833 65.5,327.5C 69.1986,317.77 73.6986,308.436 79,299.5C 80.8253,293.863 82.492,288.196 84,282.5C 83.8625,250.048 90.5292,219.048 104,189.5C 108,180.833 112,172.167 116,163.5C 117.85,156.871 115.684,152.204 109.5,149.5C 118.167,130.833 126.833,112.167 135.5,93.5 Z"/></g>
<g><path style="opacity:1" fill="#feef66" d="M 242.5,106.5 C 254.197,106.254 265.864,106.587 277.5,107.5C 308.26,111.643 337.26,120.976 364.5,135.5C 362.876,135.36 361.71,136.027 361,137.5C 330.153,203.86 299.319,270.193 268.5,336.5C 264.738,334.587 261.071,332.421 257.5,330C 264.549,326.289 270.383,321.122 275,314.5C 278.316,307.336 276.482,302.169 269.5,299C 259.833,298.333 250.167,298.333 240.5,299C 234.975,301.919 233.142,306.419 235,312.5C 239.575,320.076 245.741,325.909 253.5,330C 241.069,339.522 227.069,342.856 211.5,340C 205.259,338.548 199.925,335.548 195.5,331C 185.697,329.473 180.863,333.639 181,343.5C 183.663,348.662 187.496,352.662 192.5,355.5C 199.137,363.472 206.137,371.139 213.5,378.5C 214.253,390.926 218.086,402.259 225,412.5C 226.704,414.373 228.537,416.04 230.5,417.5C 231.795,418.488 233.128,419.488 234.5,420.5C 245.447,433.114 257.113,445.114 269.5,456.5C 272.833,460.167 276.167,463.833 279.5,467.5C 255.421,469.266 231.421,468.6 207.5,465.5C 178.281,460.553 150.948,450.553 125.5,435.5C 120.057,431.933 114.724,428.1 109.5,424C 139.95,412.614 152.45,390.78 147,358.5C 144.682,349.713 140.182,342.379 133.5,336.5C 133.5,336.167 133.5,335.833 133.5,335.5C 139.719,323.063 145.386,310.397 150.5,297.5C 171.953,300.361 185.453,291.361 191,270.5C 192.574,258.045 188.408,248.045 178.5,240.5C 197.035,199.41 215.868,158.41 235,117.5C 236.564,112.987 239.064,109.321 242.5,106.5 Z"/></g>
<g><path style="opacity:1" fill="#3c474c" d="M 343.5,234.5 C 363.605,232.138 376.772,240.472 383,259.5C 385.022,277.793 377.522,290.293 360.5,297C 341.405,300.703 328.238,293.536 321,275.5C 317.028,255.439 324.528,241.772 343.5,234.5 Z"/></g>
<g><path style="opacity:1" fill="#495357" d="M 178.5,240.5 C 188.408,248.045 192.574,258.045 191,270.5C 185.453,291.361 171.953,300.361 150.5,297.5C 131.005,288.838 124.171,274.172 130,253.5C 141.904,233.366 158.071,229.033 178.5,240.5 Z"/></g>
<g><path style="opacity:1" fill="#f9fafa" d="M 167.5,244.5 C 178.736,245.228 182.57,250.895 179,261.5C 173.624,267.647 167.958,267.98 162,262.5C 157.405,254.425 159.238,248.425 167.5,244.5 Z"/></g>
<g><path style="opacity:1" fill="#f6f6f6" d="M 339.5,244.5 C 345.866,244.036 350.366,246.702 353,252.5C 353.965,258.88 351.465,263.38 345.5,266C 339.12,266.965 334.62,264.465 332,258.5C 331.252,252.084 333.752,247.417 339.5,244.5 Z"/></g>
<g><path style="opacity:0.999" fill="#4c565b" d="M 63.5,145.5 C 63.3354,148.518 63.502,151.518 64,154.5C 71.0573,162.688 79.7239,167.355 90,168.5C 92.7854,162.427 95.9521,156.594 99.5,151C 102.63,148.604 105.964,148.104 109.5,149.5C 115.684,152.204 117.85,156.871 116,163.5C 112,172.167 108,180.833 104,189.5C 90.5292,219.048 83.8625,250.048 84,282.5C 82.492,288.196 80.8253,293.863 79,299.5C 73.6986,308.436 69.1986,317.77 65.5,327.5C 65.8333,327.833 66.1667,328.167 66.5,328.5C 90.5211,314.812 112.854,317.145 133.5,335.5C 133.5,335.833 133.5,336.167 133.5,336.5C 130.199,343.101 126.866,349.768 123.5,356.5C 111.849,341.116 97.1827,337.283 79.5,345C 72.5483,349.278 67.8816,355.278 65.5,363C 66.2497,366.163 66.9164,369.33 67.5,372.5C 63.5327,380.435 59.5327,388.435 55.5,396.5C 40.1848,370.614 37.3515,343.281 47,314.5C 52.197,304.771 56.8637,294.771 61,284.5C 61.6761,251.953 68.1761,220.619 80.5,190.5C 68.3058,186.578 57.9725,179.912 49.5,170.5C 54.4813,161.871 58.9813,152.871 63,143.5C 63.4643,144.094 63.631,144.761 63.5,145.5 Z"/></g>
<g><path style="opacity:1" fill="#424c50" d="M 268.5,336.5 C 268.5,336.833 268.5,337.167 268.5,337.5C 265.13,343.251 262.13,349.251 259.5,355.5C 258.183,355.179 256.849,354.846 255.5,354.5C 248.83,357.724 241.83,359.724 234.5,360.5C 234.177,367.022 234.51,373.355 235.5,379.5C 235.655,385.951 237.321,391.951 240.5,397.5C 236.989,404.005 233.655,410.672 230.5,417.5C 228.537,416.04 226.704,414.373 225,412.5C 218.086,402.259 214.253,390.926 213.5,378.5C 212.708,372.87 212.375,367.203 212.5,361.5C 205.515,360.504 198.848,358.504 192.5,355.5C 187.496,352.662 183.663,348.662 181,343.5C 180.863,333.639 185.697,329.473 195.5,331C 199.925,335.548 205.259,338.548 211.5,340C 227.069,342.856 241.069,339.522 253.5,330C 245.741,325.909 239.575,320.076 235,312.5C 233.142,306.419 234.975,301.919 240.5,299C 250.167,298.333 259.833,298.333 269.5,299C 276.482,302.169 278.316,307.336 275,314.5C 270.383,321.122 264.549,326.289 257.5,330C 261.071,332.421 264.738,334.587 268.5,336.5 Z"/></g>
<g><path style="opacity:1" fill="#3e484d" d="M 329.5,337.5 C 330.571,344.191 328.238,349.358 322.5,353C 315.212,356.929 307.545,359.762 299.5,361.5C 297.914,374.769 295.08,387.769 291,400.5C 281.971,420.931 266.471,429.098 244.5,425C 241.022,423.76 237.689,422.26 234.5,420.5C 233.128,419.488 231.795,418.488 230.5,417.5C 233.655,410.672 236.989,404.005 240.5,397.5C 245.558,404.117 252.225,406.284 260.5,404C 269.357,398.804 274.024,390.971 274.5,380.5C 275.936,374.053 276.603,367.386 276.5,360.5C 270.325,360.207 264.658,358.541 259.5,355.5C 262.13,349.251 265.13,343.251 268.5,337.5C 278.271,340.372 288.271,341.205 298.5,340C 304.454,339.023 309.454,336.357 313.5,332C 320.619,328.983 325.953,330.817 329.5,337.5 Z"/></g>
<g><path style="opacity:0.968" fill="#313d42" d="M 457.5,301.5 C 475.873,338.411 473.039,373.745 449,407.5C 431.182,430.495 409.349,448.495 383.5,461.5C 383.062,461.565 382.728,461.399 382.5,461C 387.99,450.023 392.99,438.856 397.5,427.5C 398.936,426.571 400.269,425.405 401.5,424C 401.272,423.601 400.938,423.435 400.5,423.5C 403.167,417.167 405.833,410.833 408.5,404.5C 412.846,404.666 417.179,404.499 421.5,404C 432.108,394.642 439.608,383.142 444,369.5C 446.331,364.176 445.497,359.51 441.5,355.5C 439.909,352.569 437.909,349.902 435.5,347.5C 442.647,332.048 449.98,316.715 457.5,301.5 Z"/></g>
<g><path style="opacity:0.997" fill="#475156" d="M 133.5,336.5 C 140.182,342.379 144.682,349.713 147,358.5C 152.45,390.78 139.95,412.614 109.5,424C 114.724,428.1 120.057,431.933 125.5,435.5C 124.624,435.369 123.957,435.702 123.5,436.5C 120.471,442.558 117.471,448.558 114.5,454.5C 90.1593,439.825 70.4926,420.492 55.5,396.5C 59.5327,388.435 63.5327,380.435 67.5,372.5C 67.8333,372.5 68.1667,372.5 68.5,372.5C 72.571,384.072 78.9044,394.239 87.5,403C 104.733,407.3 117.233,401.466 125,385.5C 126.798,380.311 127.631,374.978 127.5,369.5C 126.97,364.91 125.636,360.576 123.5,356.5C 126.866,349.768 130.199,343.101 133.5,336.5 Z"/></g>
<g><path style="opacity:1" fill="#e8726f" d="M 123.5,356.5 C 125.636,360.576 126.97,364.91 127.5,369.5C 122.974,362.477 116.974,356.977 109.5,353C 94.512,347.551 82.012,351.051 72,363.5C 69.7132,366.072 68.5465,369.072 68.5,372.5C 68.1667,372.5 67.8333,372.5 67.5,372.5C 66.9164,369.33 66.2497,366.163 65.5,363C 67.8816,355.278 72.5483,349.278 79.5,345C 97.1827,337.283 111.849,341.116 123.5,356.5 Z"/></g>
<g><path style="opacity:1" fill="#e5625f" d="M 435.5,347.5 C 437.909,349.902 439.909,352.569 441.5,355.5C 422.46,342.76 406.293,345.76 393,364.5C 388.219,375.27 388.386,385.936 393.5,396.5C 382.204,383.636 380.704,369.636 389,354.5C 402.512,338.683 418.012,336.349 435.5,347.5 Z"/></g>
<g><path style="opacity:1" fill="#f3e45c" d="M 329.5,337.5 C 340.114,346.446 350.114,356.112 359.5,366.5C 359.631,367.239 359.464,367.906 359,368.5C 329.556,398.446 299.723,427.779 269.5,456.5C 257.113,445.114 245.447,433.114 234.5,420.5C 237.689,422.26 241.022,423.76 244.5,425C 266.471,429.098 281.971,420.931 291,400.5C 295.08,387.769 297.914,374.769 299.5,361.5C 307.545,359.762 315.212,356.929 322.5,353C 328.238,349.358 330.571,344.191 329.5,337.5 Z"/></g>
<g><path style="opacity:1" fill="#e43c38" d="M 441.5,355.5 C 445.497,359.51 446.331,364.176 444,369.5C 439.608,383.142 432.108,394.642 421.5,404C 417.179,404.499 412.846,404.666 408.5,404.5C 402.764,403.133 397.764,400.467 393.5,396.5C 388.386,385.936 388.219,375.27 393,364.5C 406.293,345.76 422.46,342.76 441.5,355.5 Z"/></g>
<g><path style="opacity:1" fill="#e7504c" d="M 127.5,369.5 C 127.631,374.978 126.798,380.311 125,385.5C 117.233,401.466 104.733,407.3 87.5,403C 78.9044,394.239 72.571,384.072 68.5,372.5C 68.5465,369.072 69.7132,366.072 72,363.5C 82.012,351.051 94.512,347.551 109.5,353C 116.974,356.977 122.974,362.477 127.5,369.5 Z"/></g>
<g><path style="opacity:1" fill="#d1403e" d="M 259.5,355.5 C 264.658,358.541 270.325,360.207 276.5,360.5C 276.603,367.386 275.936,374.053 274.5,380.5C 268.601,377.637 262.268,375.304 255.5,373.5C 249.108,376.431 242.441,378.431 235.5,379.5C 234.51,373.355 234.177,367.022 234.5,360.5C 241.83,359.724 248.83,357.724 255.5,354.5C 256.849,354.846 258.183,355.179 259.5,355.5 Z"/></g>
<g><path style="opacity:1" fill="#e9da5f" d="M 192.5,355.5 C 198.848,358.504 205.515,360.504 212.5,361.5C 212.375,367.203 212.708,372.87 213.5,378.5C 206.137,371.139 199.137,363.472 192.5,355.5 Z"/></g>
<g><path style="opacity:1" fill="#f7e75c" d="M 359.5,366.5 C 360.391,367.11 361.391,367.443 362.5,367.5C 361.778,377.604 363.445,387.271 367.5,396.5C 366.883,396.389 366.383,396.056 366,395.5C 342.833,418.667 319.667,441.833 296.5,465C 297.094,465.464 297.761,465.631 298.5,465.5C 293.71,466.725 288.71,467.392 283.5,467.5C 282.167,467.5 280.833,467.5 279.5,467.5C 276.167,463.833 272.833,460.167 269.5,456.5C 299.723,427.779 329.556,398.446 359,368.5C 359.464,367.906 359.631,367.239 359.5,366.5 Z"/></g>
<g><path style="opacity:1" fill="#e54542" d="M 274.5,380.5 C 274.024,390.971 269.357,398.804 260.5,404C 252.225,406.284 245.558,404.117 240.5,397.5C 237.321,391.951 235.655,385.951 235.5,379.5C 242.441,378.431 249.108,376.431 255.5,373.5C 262.268,375.304 268.601,377.637 274.5,380.5 Z"/></g>
<g><path style="opacity:1" fill="#fae95b" d="M 367.5,396.5 C 374.574,410.235 385.574,419.235 400.5,423.5C 400.938,423.435 401.272,423.601 401.5,424C 400.269,425.405 398.936,426.571 397.5,427.5C 367.603,448.025 334.603,460.692 298.5,465.5C 297.761,465.631 297.094,465.464 296.5,465C 319.667,441.833 342.833,418.667 366,395.5C 366.383,396.056 366.883,396.389 367.5,396.5 Z"/></g>
<g><path style="opacity:0.987" fill="#364247" d="M 397.5,427.5 C 392.99,438.856 387.99,450.023 382.5,461C 382.728,461.399 383.062,461.565 383.5,461.5C 348.414,479.273 311.081,488.939 271.5,490.5C 273.761,483.305 276.594,476.305 280,469.5C 281.302,468.915 282.469,468.249 283.5,467.5C 288.71,467.392 293.71,466.725 298.5,465.5C 334.603,460.692 367.603,448.025 397.5,427.5 Z"/></g>
<g><path style="opacity:0.994" fill="#414c51" d="M 125.5,435.5 C 150.948,450.553 178.281,460.553 207.5,465.5C 204.84,472.156 202.173,478.823 199.5,485.5C 169.142,480.494 140.809,470.161 114.5,454.5C 117.471,448.558 120.471,442.558 123.5,436.5C 123.957,435.702 124.624,435.369 125.5,435.5 Z"/></g>
<g><path style="opacity:0.984" fill="#3c474c" d="M 207.5,465.5 C 231.421,468.6 255.421,469.266 279.5,467.5C 280.833,467.5 282.167,467.5 283.5,467.5C 282.469,468.249 281.302,468.915 280,469.5C 276.594,476.305 273.761,483.305 271.5,490.5C 247.259,491.481 223.259,489.814 199.5,485.5C 202.173,478.823 204.84,472.156 207.5,465.5 Z"/></g>
</svg>
